<svg width="14" height="14" viewBox="0 0 14 14" fill="none" xmlns="http://www.w3.org/2000/svg">
<path fill-rule="evenodd" clip-rule="evenodd" d="M7.77762 10.1807C7.77762 10.6101 7.42947 10.9583 7.00001 10.9583C6.57054 10.9583 6.22239 10.6101 6.22239 10.1807C6.22239 9.75119 6.57054 9.40304 7.00001 9.40304C7.42947 9.40304 7.77762 9.75119 7.77762 10.1807Z" fill="#4D4D4D"/>
<path fill-rule="evenodd" clip-rule="evenodd" d="M6.12703 3.40752C6.54384 3.23487 7.00249 3.1897 7.44498 3.27772C7.88747 3.36573 8.29392 3.58299 8.61294 3.902C8.93196 4.22102 9.14921 4.62747 9.23723 5.06996C9.32524 5.51245 9.28007 5.9711 9.10742 6.38791C8.93477 6.80473 8.6424 7.16099 8.26727 7.41164C8.02318 7.57474 7.75117 7.68835 7.46663 7.74783V7.84781C7.46663 8.10554 7.2577 8.31448 6.99997 8.31448C6.74223 8.31448 6.5333 8.10554 6.5333 7.84781V7.3294C6.5333 7.20564 6.58246 7.08694 6.66998 6.99942C6.7575 6.9119 6.8762 6.86274 6.99997 6.86274C7.26653 6.86274 7.5271 6.78369 7.74874 6.6356C7.97038 6.4875 8.14312 6.27701 8.24513 6.03074C8.34714 5.78447 8.37383 5.51348 8.32183 5.25204C8.26982 4.9906 8.14146 4.75046 7.95298 4.56197C7.76449 4.37348 7.52434 4.24512 7.2629 4.19312C7.00146 4.14111 6.73047 4.1678 6.4842 4.26981C6.23793 4.37182 6.02744 4.54457 5.87934 4.7662C5.73125 4.98784 5.65221 5.24842 5.65221 5.51498C5.65221 5.77271 5.44327 5.98165 5.18554 5.98165C4.92781 5.98165 4.71887 5.77271 4.71887 5.51498C4.71887 5.06382 4.85266 4.62279 5.10331 4.24767C5.35396 3.87255 5.71021 3.58017 6.12703 3.40752Z" fill="#4D4D4D"/>
<path fill-rule="evenodd" clip-rule="evenodd" d="M6.99998 1.63335C4.03605 1.63335 1.63332 4.03608 1.63332 7.00001C1.63332 9.96394 4.03605 12.3667 6.99998 12.3667C9.96391 12.3667 12.3666 9.96394 12.3666 7.00001C12.3666 4.03608 9.96391 1.63335 6.99998 1.63335ZM0.699982 7.00001C0.699982 3.52062 3.52059 0.700012 6.99998 0.700012C10.4794 0.700012 13.3 3.52062 13.3 7.00001C13.3 10.4794 10.4794 13.3 6.99998 13.3C3.52059 13.3 0.699982 10.4794 0.699982 7.00001Z" fill="#4D4D4D"/>
</svg>
